0
SECTION
2
HEADER
9
$ACADVER
1
AC1009
9
$INSBASE
10
0.000
20
0.000
30
0.000
9
$EXTMIN
10
7513938.660
20
4691208.600
9
$EXTMAX
10
7513938.660
20
4691208.600
0
ENDSEC
0
SECTION
2
TABLES
0
TABLE
2
LTYPE
70
1
0
LTYPE
2
continuous
70
64
3
Solid line
72
65
73
0
40
0.000
0
ENDTAB
0
TABLE
2
LAYER
70
1
0
LAYER
2
Parcela
70
64
62
7
6
continuous
0
ENDTAB
0
TABLE
2
STYLE
70
1
0
STYLE
2
ANNOTATIVE
70
0
40
0
41
40
50
50
71
0
42
1
3
ARIAL.TTF
4

0
ENDTAB
0
TABLE
2
VIEW
70
0
0
ENDTAB
0
ENDSEC
0
SECTION
2
BLOCKS
0
ENDSEC
0
SECTION
2
ENTITIES
0
POLYLINE
66
1
8
Parcela Baze
70
0
10
7501961.888
20
4691954.283
0
VERTEX
8
Parcela Baze
10
7501961.888
20
4691954.283
0
VERTEX
8
Parcela Baze
10
7501966.598
20
4691957.923
0
VERTEX
8
Parcela Baze
10
7501963.048
20
4691961.753
0
VERTEX
8
Parcela Baze
10
7501952.028
20
4691966.283
0
VERTEX
8
Parcela Baze
10
7501947.408
20
4691976.243
0
VERTEX
8
Parcela Baze
10
7501956.838
20
4691970.313
0
VERTEX
8
Parcela Baze
10
7501969.888
20
4691962.733
0
VERTEX
8
Parcela Baze
10
7501969.168
20
4691951.653
0
VERTEX
8
Parcela Baze
10
7501962.948
20
4691946.943
0
VERTEX
8
Parcela Baze
10
7501958.597
20
4691943.473
0
VERTEX
8
Parcela Baze
10
7501952.436
20
4691908.564
0
VERTEX
8
Parcela Baze
10
7501950.886
20
4691889.094
0
VERTEX
8
Parcela Baze
10
7501949.125
20
4691868.974
0
VERTEX
8
Parcela Baze
10
7501945.565
20
4691858.914
0
VERTEX
8
Parcela Baze
10
7501935.335
20
4691850.484
0
VERTEX
8
Parcela Baze
10
7501932.975
20
4691850.324
0
VERTEX
8
Parcela Baze
10
7501929.475
20
4691848.575
0
VERTEX
8
Parcela Baze
10
7501918.715
20
4691842.085
0
VERTEX
8
Parcela Baze
10
7501914.792
20
4691841.328
0
VERTEX
8
Parcela Baze
10
7501898.745
20
4691838.255
0
VERTEX
8
Parcela Baze
10
7501886.278
20
4691834.854
0
VERTEX
8
Parcela Baze
10
7501879.024
20
4691832.875
0
VERTEX
8
Parcela Baze
10
7501860.934
20
4691819.805
0
VERTEX
8
Parcela Baze
10
7501839.894
20
4691809.896
0
VERTEX
8
Parcela Baze
10
7501803.717
20
4691784.851
0
VERTEX
8
Parcela Baze
10
7501794.393
20
4691778.396
0
VERTEX
8
Parcela Baze
10
7501777.272
20
4691754.757
0
VERTEX
8
Parcela Baze
10
7501774.668
20
4691753.865
0
VERTEX
8
Parcela Baze
10
7501749.802
20
4691745.347
0
VERTEX
8
Parcela Baze
10
7501745.372
20
4691743.437
0
VERTEX
8
Parcela Baze
10
7501713.892
20
4691738.087
0
VERTEX
8
Parcela Baze
10
7501698.162
20
4691731.268
0
VERTEX
8
Parcela Baze
10
7501680.742
20
4691719.708
0
VERTEX
8
Parcela Baze
10
7501668.861
20
4691704.339
0
VERTEX
8
Parcela Baze
10
7501662.741
20
4691695.819
0
VERTEX
8
Parcela Baze
10
7501648.331
20
4691674.800
0
VERTEX
8
Parcela Baze
10
7501632.351
20
4691656.781
0
VERTEX
8
Parcela Baze
10
7501627.991
20
4691652.801
0
VERTEX
8
Parcela Baze
10
7501609.991
20
4691635.882
0
VERTEX
8
Parcela Baze
10
7501586.781
20
4691612.993
0
VERTEX
8
Parcela Baze
10
7501581.141
20
4691602.464
0
VERTEX
8
Parcela Baze
10
7501573.121
20
4691594.864
0
VERTEX
8
Parcela Baze
10
7501550.361
20
4691590.695
0
VERTEX
8
Parcela Baze
10
7501537.511
20
4691589.715
0
VERTEX
8
Parcela Baze
10
7501515.511
20
4691586.845
0
VERTEX
8
Parcela Baze
10
7501509.671
20
4691584.105
0
VERTEX
8
Parcela Baze
10
7501497.400
20
4691577.156
0
VERTEX
8
Parcela Baze
10
7501479.060
20
4691546.347
0
VERTEX
8
Parcela Baze
10
7501463.760
20
4691549.957
0
VERTEX
8
Parcela Baze
10
7501454.760
20
4691562.977
0
VERTEX
8
Parcela Baze
10
7501451.680
20
4691573.496
0
VERTEX
8
Parcela Baze
10
7501445.150
20
4691580.046
0
VERTEX
8
Parcela Baze
10
7501432.271
20
4691592.716
0
VERTEX
8
Parcela Baze
10
7501424.081
20
4691602.965
0
VERTEX
8
Parcela Baze
10
7501416.681
20
4691616.735
0
VERTEX
8
Parcela Baze
10
7501398.941
20
4691628.234
0
VERTEX
8
Parcela Baze
10
7501386.081
20
4691637.504
0
VERTEX
8
Parcela Baze
10
7501370.741
20
4691656.474
0
VERTEX
8
Parcela Baze
10
7501358.931
20
4691673.013
0
VERTEX
8
Parcela Baze
10
7501345.681
20
4691685.853
0
VERTEX
8
Parcela Baze
10
7501330.561
20
4691691.993
0
VERTEX
8
Parcela Baze
10
7501307.622
20
4691703.352
0
VERTEX
8
Parcela Baze
10
7501291.212
20
4691706.762
0
VERTEX
8
Parcela Baze
10
7501272.382
20
4691717.222
0
VERTEX
8
Parcela Baze
10
7501260.342
20
4691724.402
0
VERTEX
8
Parcela Baze
10
7501251.602
20
4691737.672
0
VERTEX
8
Parcela Baze
10
7501239.052
20
4691751.972
0
VERTEX
8
Parcela Baze
10
7501233.913
20
4691765.332
0
VERTEX
8
Parcela Baze
10
7501232.293
20
4691778.592
0
VERTEX
8
Parcela Baze
10
7501214.874
20
4691819.661
0
VERTEX
8
Parcela Baze
10
7501205.015
20
4691859.831
0
VERTEX
8
Parcela Baze
10
7501186.476
20
4691873.381
0
VERTEX
8
Parcela Baze
10
7501176.326
20
4691866.191
0
VERTEX
8
Parcela Baze
10
7501157.855
20
4691862.942
0
VERTEX
8
Parcela Baze
10
7501141.605
20
4691861.312
0
VERTEX
8
Parcela Baze
10
7501098.206
20
4691883.042
0
VERTEX
8
Parcela Baze
10
7501092.406
20
4691886.252
0
VERTEX
8
Parcela Baze
10
7501086.506
20
4691896.112
0
VERTEX
8
Parcela Baze
10
7501077.237
20
4691911.222
0
VERTEX
8
Parcela Baze
10
7501043.047
20
4691918.832
0
VERTEX
8
Parcela Baze
10
7501030.707
20
4691925.892
0
VERTEX
8
Parcela Baze
10
7501010.007
20
4691936.512
0
VERTEX
8
Parcela Baze
10
7500976.708
20
4691961.532
0
VERTEX
8
Parcela Baze
10
7500945.739
20
4691996.062
0
VERTEX
8
Parcela Baze
10
7500920.890
20
4692020.872
0
VERTEX
8
Parcela Baze
10
7500905.550
20
4692032.402
0
VERTEX
8
Parcela Baze
10
7500885.270
20
4692041.723
0
VERTEX
8
Parcela Baze
10
7500861.111
20
4692052.253
0
VERTEX
8
Parcela Baze
10
7500826.191
20
4692066.143
0
VERTEX
8
Parcela Baze
10
7500827.891
20
4692068.893
0
VERTEX
8
Parcela Baze
10
7500863.121
20
4692055.543
0
VERTEX
8
Parcela Baze
10
7500867.991
20
4692052.693
0
VERTEX
8
Parcela Baze
10
7500876.761
20
4692051.343
0
VERTEX
8
Parcela Baze
10
7500885.540
20
4692046.612
0
VERTEX
8
Parcela Baze
10
7500901.310
20
4692040.532
0
VERTEX
8
Parcela Baze
10
7500911.270
20
4692034.282
0
VERTEX
8
Parcela Baze
10
7500922.910
20
4692026.002
0
VERTEX
8
Parcela Baze
10
7500941.659
20
4692006.652
0
VERTEX
8
Parcela Baze
10
7500979.338
20
4691967.422
0
VERTEX
8
Parcela Baze
10
7500996.308
20
4691951.202
0
VERTEX
8
Parcela Baze
10
7501011.737
20
4691939.382
0
VERTEX
8
Parcela Baze
10
7501031.647
20
4691929.752
0
VERTEX
8
Parcela Baze
10
7501038.547
20
4691924.172
0
VERTEX
8
Parcela Baze
10
7501080.647
20
4691914.012
0
VERTEX
8
Parcela Baze
10
7501090.796
20
4691898.552
0
VERTEX
8
Parcela Baze
10
7501100.116
20
4691884.902
0
VERTEX
8
Parcela Baze
10
7501111.446
20
4691880.872
0
VERTEX
8
Parcela Baze
10
7501142.626
20
4691868.882
0
VERTEX
8
Parcela Baze
10
7501175.506
20
4691871.261
0
VERTEX
8
Parcela Baze
10
7501188.486
20
4691880.261
0
VERTEX
8
Parcela Baze
10
7501201.246
20
4691867.911
0
VERTEX
8
Parcela Baze
10
7501204.865
20
4691864.331
0
VERTEX
8
Parcela Baze
10
7501209.005
20
4691861.191
0
VERTEX
8
Parcela Baze
10
7501217.894
20
4691820.531
0
VERTEX
8
Parcela Baze
10
7501237.003
20
4691780.511
0
VERTEX
8
Parcela Baze
10
7501237.643
20
4691766.712
0
VERTEX
8
Parcela Baze
10
7501242.363
20
4691754.422
0
VERTEX
8
Parcela Baze
10
7501256.022
20
4691739.822
0
VERTEX
8
Parcela Baze
10
7501265.472
20
4691728.362
0
VERTEX
8
Parcela Baze
10
7501275.032
20
4691720.682
0
VERTEX
8
Parcela Baze
10
7501289.332
20
4691712.052
0
VERTEX
8
Parcela Baze
10
7501309.402
20
4691706.262
0
VERTEX
8
Parcela Baze
10
7501330.672
20
4691696.832
0
VERTEX
8
Parcela Baze
10
7501348.501
20
4691690.182
0
VERTEX
8
Parcela Baze
10
7501359.651
20
4691678.373
0
VERTEX
8
Parcela Baze
10
7501374.651
20
4691658.044
0
VERTEX
8
Parcela Baze
10
7501388.781
20
4691640.864
0
VERTEX
8
Parcela Baze
10
7501402.151
20
4691630.764
0
VERTEX
8
Parcela Baze
10
7501419.991
20
4691619.975
0
VERTEX
8
Parcela Baze
10
7501427.501
20
4691606.485
0
VERTEX
8
Parcela Baze
10
7501435.181
20
4691596.675
0
VERTEX
8
Parcela Baze
10
7501449.591
20
4691583.136
0
VERTEX
8
Parcela Baze
10
7501455.020
20
4691576.466
0
VERTEX
8
Parcela Baze
10
7501459.280
20
4691564.057
0
VERTEX
8
Parcela Baze
10
7501467.310
20
4691554.717
0
VERTEX
8
Parcela Baze
10
7501476.250
20
4691554.577
0
VERTEX
8
Parcela Baze
10
7501493.891
20
4691582.755
0
VERTEX
8
Parcela Baze
10
7501513.851
20
4691592.605
0
VERTEX
8
Parcela Baze
10
7501538.231
20
4691596.134
0
VERTEX
8
Parcela Baze
10
7501550.411
20
4691595.394
0
VERTEX
8
Parcela Baze
10
7501562.491
20
4691600.534
0
VERTEX
8
Parcela Baze
10
7501571.781
20
4691600.114
0
VERTEX
8
Parcela Baze
10
7501583.961
20
4691616.453
0
VERTEX
8
Parcela Baze
10
7501602.071
20
4691634.432
0
VERTEX
8
Parcela Baze
10
7501630.311
20
4691660.031
0
VERTEX
8
Parcela Baze
10
7501644.281
20
4691677.390
0
VERTEX
8
Parcela Baze
10
7501662.981
20
4691703.969
0
VERTEX
8
Parcela Baze
10
7501675.672
20
4691724.348
0
VERTEX
8
Parcela Baze
10
7501691.632
20
4691735.028
0
VERTEX
8
Parcela Baze
10
7501708.772
20
4691746.457
0
VERTEX
8
Parcela Baze
10
7501746.832
20
4691753.357
0
VERTEX
8
Parcela Baze
10
7501772.273
20
4691758.487
0
VERTEX
8
Parcela Baze
10
7501788.333
20
4691783.516
0
VERTEX
8
Parcela Baze
10
7501825.124
20
4691806.286
0
VERTEX
8
Parcela Baze
10
7501837.074
20
4691813.206
0
VERTEX
8
Parcela Baze
10
7501863.284
20
4691832.595
0
VERTEX
8
Parcela Baze
10
7501880.055
20
4691838.355
0
VERTEX
8
Parcela Baze
10
7501896.085
20
4691846.595
0
VERTEX
8
Parcela Baze
10
7501917.865
20
4691848.265
0
VERTEX
8
Parcela Baze
10
7501929.125
20
4691853.174
0
VERTEX
8
Parcela Baze
10
7501937.745
20
4691859.874
0
VERTEX
8
Parcela Baze
10
7501942.755
20
4691866.704
0
VERTEX
8
Parcela Baze
10
7501943.605
20
4691867.614
0
VERTEX
8
Parcela Baze
10
7501948.286
20
4691908.104
0
VERTEX
8
Parcela Baze
10
7501953.277
20
4691946.133
0
VERTEX
8
Parcela Baze
10
7501961.888
20
4691954.283
0
SEQEND
0
TEXT
8
Nr Parceles Baze
10
7501912.085
20
4691844.025
40
0.800000
1
3492-0
0
TEXT
8
Nr e Pikave Gjeodezike te Parceles Baze
10
7501969.888
20
4691962.733
40
0.800000
1
723560
0
POINT
8
Pikat
10
7501969.888
20
4691962.733
0
TEXT
8
Nr e Pikave Gjeodezike te Parceles Baze
10
7501956.838
20
4691970.313
40
0.800000
1
723561
0
POINT
8
Pikat
10
7501956.838
20
4691970.313
0
TEXT
8
Nr e Pikave Gjeodezike te Parceles Baze
10
7501947.408
20
4691976.243
40
0.800000
1
723562
0
POINT
8
Pikat
10
7501947.408
20
4691976.243
0
TEXT
8
Nr e Pikave Gjeodezike te Parceles Baze
10
7501952.028
20
4691966.283
40
0.800000
1
739053
0
POINT
8
Pikat
10
7501952.028
20
4691966.283
0
TEXT
8
Nr e Pikave Gjeodezike te Parceles Baze
10
7501963.048
20
4691961.753
40
0.800000
1
739054
0
POINT
8
Pikat
10
7501963.048
20
4691961.753
0
TEXT
8
Nr e Pikave Gjeodezike te Parceles Baze
10
7501966.598
20
4691957.923
40
0.800000
1
739055
0
POINT
8
Pikat
10
7501966.598
20
4691957.923
0
TEXT
8
Nr e Pikave Gjeodezike te Parceles Baze
10
7501961.888
20
4691954.283
40
0.800000
1
739056
0
POINT
8
Pikat
10
7501961.888
20
4691954.283
0
TEXT
8
Nr e Pikave Gjeodezike te Parceles Baze
10
7501953.277
20
4691946.133
40
0.800000
1
739070
0
POINT
8
Pikat
10
7501953.277
20
4691946.133
0
TEXT
8
Nr e Pikave Gjeodezike te Parceles Baze
10
7501948.286
20
4691908.104
40
0.800000
1
739071
0
POINT
8
Pikat
10
7501948.286
20
4691908.104
0
TEXT
8
Nr e Pikave Gjeodezike te Parceles Baze
10
7501943.605
20
4691867.614
40
0.800000
1
739072
0
POINT
8
Pikat
10
7501943.605
20
4691867.614
0
TEXT
8
Nr e Pikave Gjeodezike te Parceles Baze
10
7501942.755
20
4691866.704
40
0.800000
1
739073
0
POINT
8
Pikat
10
7501942.755
20
4691866.704
0
TEXT
8
Nr e Pikave Gjeodezike te Parceles Baze
10
7501969.168
20
4691951.653
40
0.800000
1
739086
0
POINT
8
Pikat
10
7501969.168
20
4691951.653
0
TEXT
8
Nr e Pikave Gjeodezike te Parceles Baze
10
7501962.948
20
4691946.943
40
0.800000
1
739087
0
POINT
8
Pikat
10
7501962.948
20
4691946.943
0
TEXT
8
Nr e Pikave Gjeodezike te Parceles Baze
10
7501958.597
20
4691943.473
40
0.800000
1
739088
0
POINT
8
Pikat
10
7501958.597
20
4691943.473
0
TEXT
8
Nr e Pikave Gjeodezike te Parceles Baze
10
7501952.436
20
4691908.564
40
0.800000
1
739089
0
POINT
8
Pikat
10
7501952.436
20
4691908.564
0
TEXT
8
Nr e Pikave Gjeodezike te Parceles Baze
10
7501950.886
20
4691889.094
40
0.800000
1
739090
0
POINT
8
Pikat
10
7501950.886
20
4691889.094
0
TEXT
8
Nr e Pikave Gjeodezike te Parceles Baze
10
7501949.125
20
4691868.974
40
0.800000
1
739091
0
POINT
8
Pikat
10
7501949.125
20
4691868.974
0
TEXT
8
Nr e Pikave Gjeodezike te Parceles Baze
10
7501945.565
20
4691858.914
40
0.800000
1
739092
0
POINT
8
Pikat
10
7501945.565
20
4691858.914
0
TEXT
8
Nr e Pikave Gjeodezike te Parceles Baze
10
7501935.335
20
4691850.484
40
0.800000
1
739093
0
POINT
8
Pikat
10
7501935.335
20
4691850.484
0
TEXT
8
Nr e Pikave Gjeodezike te Parceles Baze
10
7501932.975
20
4691850.324
40
0.800000
1
739094
0
POINT
8
Pikat
10
7501932.975
20
4691850.324
0
TEXT
8
Nr e Pikave Gjeodezike te Parceles Baze
10
7501929.475
20
4691848.575
40
0.800000
1
739095
0
POINT
8
Pikat
10
7501929.475
20
4691848.575
0
TEXT
8
Nr e Pikave Gjeodezike te Parceles Baze
10
7501918.715
20
4691842.085
40
0.800000
1
739096
0
POINT
8
Pikat
10
7501918.715
20
4691842.085
0
TEXT
8
Nr e Pikave Gjeodezike te Parceles Baze
10
7501898.745
20
4691838.255
40
0.800000
1
739097
0
POINT
8
Pikat
10
7501898.745
20
4691838.255
0
TEXT
8
Nr e Pikave Gjeodezike te Parceles Baze
10
7501879.024
20
4691832.875
40
0.800000
1
739098
0
POINT
8
Pikat
10
7501879.024
20
4691832.875
0
TEXT
8
Nr e Pikave Gjeodezike te Parceles Baze
10
7501860.934
20
4691819.805
40
0.800000
1
739099
0
POINT
8
Pikat
10
7501860.934
20
4691819.805
0
TEXT
8
Nr e Pikave Gjeodezike te Parceles Baze
10
7501839.894
20
4691809.896
40
0.800000
1
739100
0
POINT
8
Pikat
10
7501839.894
20
4691809.896
0
TEXT
8
Nr e Pikave Gjeodezike te Parceles Baze
10
7501794.393
20
4691778.396
40
0.800000
1
739101
0
POINT
8
Pikat
10
7501794.393
20
4691778.396
0
TEXT
8
Nr e Pikave Gjeodezike te Parceles Baze
10
7501777.272
20
4691754.757
40
0.800000
1
739102
0
POINT
8
Pikat
10
7501777.272
20
4691754.757
0
TEXT
8
Nr e Pikave Gjeodezike te Parceles Baze
10
7501749.802
20
4691745.347
40
0.800000
1
739103
0
POINT
8
Pikat
10
7501749.802
20
4691745.347
0
TEXT
8
Nr e Pikave Gjeodezike te Parceles Baze
10
7501745.372
20
4691743.437
40
0.800000
1
739104
0
POINT
8
Pikat
10
7501745.372
20
4691743.437
0
TEXT
8
Nr e Pikave Gjeodezike te Parceles Baze
10
7501713.892
20
4691738.087
40
0.800000
1
739105
0
POINT
8
Pikat
10
7501713.892
20
4691738.087
0
TEXT
8
Nr e Pikave Gjeodezike te Parceles Baze
10
7501698.162
20
4691731.268
40
0.800000
1
739106
0
POINT
8
Pikat
10
7501698.162
20
4691731.268
0
TEXT
8
Nr e Pikave Gjeodezike te Parceles Baze
10
7501680.742
20
4691719.708
40
0.800000
1
739107
0
POINT
8
Pikat
10
7501680.742
20
4691719.708
0
TEXT
8
Nr e Pikave Gjeodezike te Parceles Baze
10
7501668.861
20
4691704.339
40
0.800000
1
739108
0
POINT
8
Pikat
10
7501668.861
20
4691704.339
0
TEXT
8
Nr e Pikave Gjeodezike te Parceles Baze
10
7501662.741
20
4691695.819
40
0.800000
1
739109
0
POINT
8
Pikat
10
7501662.741
20
4691695.819
0
TEXT
8
Nr e Pikave Gjeodezike te Parceles Baze
10
7501648.331
20
4691674.800
40
0.800000
1
739110
0
POINT
8
Pikat
10
7501648.331
20
4691674.800
0
TEXT
8
Nr e Pikave Gjeodezike te Parceles Baze
10
7501632.351
20
4691656.781
40
0.800000
1
739111
0
POINT
8
Pikat
10
7501632.351
20
4691656.781
0
TEXT
8
Nr e Pikave Gjeodezike te Parceles Baze
10
7501627.991
20
4691652.801
40
0.800000
1
739112
0
POINT
8
Pikat
10
7501627.991
20
4691652.801
0
TEXT
8
Nr e Pikave Gjeodezike te Parceles Baze
10
7501609.991
20
4691635.882
40
0.800000
1
739113
0
POINT
8
Pikat
10
7501609.991
20
4691635.882
0
TEXT
8
Nr e Pikave Gjeodezike te Parceles Baze
10
7501586.781
20
4691612.993
40
0.800000
1
739114
0
POINT
8
Pikat
10
7501586.781
20
4691612.993
0
TEXT
8
Nr e Pikave Gjeodezike te Parceles Baze
10
7501581.141
20
4691602.464
40
0.800000
1
739115
0
POINT
8
Pikat
10
7501581.141
20
4691602.464
0
TEXT
8
Nr e Pikave Gjeodezike te Parceles Baze
10
7501573.121
20
4691594.864
40
0.800000
1
739116
0
POINT
8
Pikat
10
7501573.121
20
4691594.864
0
TEXT
8
Nr e Pikave Gjeodezike te Parceles Baze
10
7501550.361
20
4691590.695
40
0.800000
1
739117
0
POINT
8
Pikat
10
7501550.361
20
4691590.695
0
TEXT
8
Nr e Pikave Gjeodezike te Parceles Baze
10
7501537.511
20
4691589.715
40
0.800000
1
739118
0
POINT
8
Pikat
10
7501537.511
20
4691589.715
0
TEXT
8
Nr e Pikave Gjeodezike te Parceles Baze
10
7501515.511
20
4691586.845
40
0.800000
1
739119
0
POINT
8
Pikat
10
7501515.511
20
4691586.845
0
TEXT
8
Nr e Pikave Gjeodezike te Parceles Baze
10
7501509.671
20
4691584.105
40
0.800000
1
739120
0
POINT
8
Pikat
10
7501509.671
20
4691584.105
0
TEXT
8
Nr e Pikave Gjeodezike te Parceles Baze
10
7501497.400
20
4691577.156
40
0.800000
1
739121
0
POINT
8
Pikat
10
7501497.400
20
4691577.156
0
TEXT
8
Nr e Pikave Gjeodezike te Parceles Baze
10
7501479.060
20
4691546.347
40
0.800000
1
739122
0
POINT
8
Pikat
10
7501479.060
20
4691546.347
0
TEXT
8
Nr e Pikave Gjeodezike te Parceles Baze
10
7501463.760
20
4691549.957
40
0.800000
1
739123
0
POINT
8
Pikat
10
7501463.760
20
4691549.957
0
TEXT
8
Nr e Pikave Gjeodezike te Parceles Baze
10
7501454.760
20
4691562.977
40
0.800000
1
739124
0
POINT
8
Pikat
10
7501454.760
20
4691562.977
0
TEXT
8
Nr e Pikave Gjeodezike te Parceles Baze
10
7501451.680
20
4691573.496
40
0.800000
1
739125
0
POINT
8
Pikat
10
7501451.680
20
4691573.496
0
TEXT
8
Nr e Pikave Gjeodezike te Parceles Baze
10
7501445.150
20
4691580.046
40
0.800000
1
739126
0
POINT
8
Pikat
10
7501445.150
20
4691580.046
0
TEXT
8
Nr e Pikave Gjeodezike te Parceles Baze
10
7501432.271
20
4691592.716
40
0.800000
1
739127
0
POINT
8
Pikat
10
7501432.271
20
4691592.716
0
TEXT
8
Nr e Pikave Gjeodezike te Parceles Baze
10
7501424.081
20
4691602.965
40
0.800000
1
739128
0
POINT
8
Pikat
10
7501424.081
20
4691602.965
0
TEXT
8
Nr e Pikave Gjeodezike te Parceles Baze
10
7501416.681
20
4691616.735
40
0.800000
1
739129
0
POINT
8
Pikat
10
7501416.681
20
4691616.735
0
TEXT
8
Nr e Pikave Gjeodezike te Parceles Baze
10
7501398.941
20
4691628.234
40
0.800000
1
739130
0
POINT
8
Pikat
10
7501398.941
20
4691628.234
0
TEXT
8
Nr e Pikave Gjeodezike te Parceles Baze
10
7501386.081
20
4691637.504
40
0.800000
1
739131
0
POINT
8
Pikat
10
7501386.081
20
4691637.504
0
TEXT
8
Nr e Pikave Gjeodezike te Parceles Baze
10
7501370.741
20
4691656.474
40
0.800000
1
739132
0
POINT
8
Pikat
10
7501370.741
20
4691656.474
0
TEXT
8
Nr e Pikave Gjeodezike te Parceles Baze
10
7501358.931
20
4691673.013
40
0.800000
1
739133
0
POINT
8
Pikat
10
7501358.931
20
4691673.013
0
TEXT
8
Nr e Pikave Gjeodezike te Parceles Baze
10
7501345.681
20
4691685.853
40
0.800000
1
739134
0
POINT
8
Pikat
10
7501345.681
20
4691685.853
0
TEXT
8
Nr e Pikave Gjeodezike te Parceles Baze
10
7501330.561
20
4691691.993
40
0.800000
1
739135
0
POINT
8
Pikat
10
7501330.561
20
4691691.993
0
TEXT
8
Nr e Pikave Gjeodezike te Parceles Baze
10
7501307.622
20
4691703.352
40
0.800000
1
739136
0
POINT
8
Pikat
10
7501307.622
20
4691703.352
0
TEXT
8
Nr e Pikave Gjeodezike te Parceles Baze
10
7501291.212
20
4691706.762
40
0.800000
1
739137
0
POINT
8
Pikat
10
7501291.212
20
4691706.762
0
TEXT
8
Nr e Pikave Gjeodezike te Parceles Baze
10
7501272.382
20
4691717.222
40
0.800000
1
739138
0
POINT
8
Pikat
10
7501272.382
20
4691717.222
0
TEXT
8
Nr e Pikave Gjeodezike te Parceles Baze
10
7501260.342
20
4691724.402
40
0.800000
1
739139
0
POINT
8
Pikat
10
7501260.342
20
4691724.402
0
TEXT
8
Nr e Pikave Gjeodezike te Parceles Baze
10
7501251.602
20
4691737.672
40
0.800000
1
739140
0
POINT
8
Pikat
10
7501251.602
20
4691737.672
0
TEXT
8
Nr e Pikave Gjeodezike te Parceles Baze
10
7501239.052
20
4691751.972
40
0.800000
1
739141
0
POINT
8
Pikat
10
7501239.052
20
4691751.972
0
TEXT
8
Nr e Pikave Gjeodezike te Parceles Baze
10
7501233.913
20
4691765.332
40
0.800000
1
739142
0
POINT
8
Pikat
10
7501233.913
20
4691765.332
0
TEXT
8
Nr e Pikave Gjeodezike te Parceles Baze
10
7501232.293
20
4691778.592
40
0.800000
1
739143
0
POINT
8
Pikat
10
7501232.293
20
4691778.592
0
TEXT
8
Nr e Pikave Gjeodezike te Parceles Baze
10
7501214.874
20
4691819.661
40
0.800000
1
739144
0
POINT
8
Pikat
10
7501214.874
20
4691819.661
0
TEXT
8
Nr e Pikave Gjeodezike te Parceles Baze
10
7501205.015
20
4691859.831
40
0.800000
1
739145
0
POINT
8
Pikat
10
7501205.015
20
4691859.831
0
TEXT
8
Nr e Pikave Gjeodezike te Parceles Baze
10
7501186.476
20
4691873.381
40
0.800000
1
739146
0
POINT
8
Pikat
10
7501186.476
20
4691873.381
0
TEXT
8
Nr e Pikave Gjeodezike te Parceles Baze
10
7501176.326
20
4691866.191
40
0.800000
1
739147
0
POINT
8
Pikat
10
7501176.326
20
4691866.191
0
TEXT
8
Nr e Pikave Gjeodezike te Parceles Baze
10
7501157.855
20
4691862.942
40
0.800000
1
739148
0
POINT
8
Pikat
10
7501157.855
20
4691862.942
0
TEXT
8
Nr e Pikave Gjeodezike te Parceles Baze
10
7501141.605
20
4691861.312
40
0.800000
1
739149
0
POINT
8
Pikat
10
7501141.605
20
4691861.312
0
TEXT
8
Nr e Pikave Gjeodezike te Parceles Baze
10
7501098.206
20
4691883.042
40
0.800000
1
739150
0
POINT
8
Pikat
10
7501098.206
20
4691883.042
0
TEXT
8
Nr e Pikave Gjeodezike te Parceles Baze
10
7501092.406
20
4691886.252
40
0.800000
1
739151
0
POINT
8
Pikat
10
7501092.406
20
4691886.252
0
TEXT
8
Nr e Pikave Gjeodezike te Parceles Baze
10
7501086.506
20
4691896.112
40
0.800000
1
739152
0
POINT
8
Pikat
10
7501086.506
20
4691896.112
0
TEXT
8
Nr e Pikave Gjeodezike te Parceles Baze
10
7501077.237
20
4691911.222
40
0.800000
1
739153
0
POINT
8
Pikat
10
7501077.237
20
4691911.222
0
TEXT
8
Nr e Pikave Gjeodezike te Parceles Baze
10
7501043.047
20
4691918.832
40
0.800000
1
739154
0
POINT
8
Pikat
10
7501043.047
20
4691918.832
0
TEXT
8
Nr e Pikave Gjeodezike te Parceles Baze
10
7501030.707
20
4691925.892
40
0.800000
1
739155
0
POINT
8
Pikat
10
7501030.707
20
4691925.892
0
TEXT
8
Nr e Pikave Gjeodezike te Parceles Baze
10
7501010.007
20
4691936.512
40
0.800000
1
739156
0
POINT
8
Pikat
10
7501010.007
20
4691936.512
0
TEXT
8
Nr e Pikave Gjeodezike te Parceles Baze
10
7500976.708
20
4691961.532
40
0.800000
1
739157
0
POINT
8
Pikat
10
7500976.708
20
4691961.532
0
TEXT
8
Nr e Pikave Gjeodezike te Parceles Baze
10
7500945.739
20
4691996.062
40
0.800000
1
739158
0
POINT
8
Pikat
10
7500945.739
20
4691996.062
0
TEXT
8
Nr e Pikave Gjeodezike te Parceles Baze
10
7500920.890
20
4692020.872
40
0.800000
1
739159
0
POINT
8
Pikat
10
7500920.890
20
4692020.872
0
TEXT
8
Nr e Pikave Gjeodezike te Parceles Baze
10
7500905.550
20
4692032.402
40
0.800000
1
739160
0
POINT
8
Pikat
10
7500905.550
20
4692032.402
0
TEXT
8
Nr e Pikave Gjeodezike te Parceles Baze
10
7500885.270
20
4692041.723
40
0.800000
1
739161
0
POINT
8
Pikat
10
7500885.270
20
4692041.723
0
TEXT
8
Nr e Pikave Gjeodezike te Parceles Baze
10
7500861.111
20
4692052.253
40
0.800000
1
739162
0
POINT
8
Pikat
10
7500861.111
20
4692052.253
0
TEXT
8
Nr e Pikave Gjeodezike te Parceles Baze
10
7500826.191
20
4692066.143
40
0.800000
1
739163
0
POINT
8
Pikat
10
7500826.191
20
4692066.143
0
TEXT
8
Nr e Pikave Gjeodezike te Parceles Baze
10
7500827.891
20
4692068.893
40
0.800000
1
739164
0
POINT
8
Pikat
10
7500827.891
20
4692068.893
0
TEXT
8
Nr e Pikave Gjeodezike te Parceles Baze
10
7500863.121
20
4692055.543
40
0.800000
1
739165
0
POINT
8
Pikat
10
7500863.121
20
4692055.543
0
TEXT
8
Nr e Pikave Gjeodezike te Parceles Baze
10
7500867.991
20
4692052.693
40
0.800000
1
739166
0
POINT
8
Pikat
10
7500867.991
20
4692052.693
0
TEXT
8
Nr e Pikave Gjeodezike te Parceles Baze
10
7500876.761
20
4692051.343
40
0.800000
1
739167
0
POINT
8
Pikat
10
7500876.761
20
4692051.343
0
TEXT
8
Nr e Pikave Gjeodezike te Parceles Baze
10
7500885.540
20
4692046.612
40
0.800000
1
739168
0
POINT
8
Pikat
10
7500885.540
20
4692046.612
0
TEXT
8
Nr e Pikave Gjeodezike te Parceles Baze
10
7500901.310
20
4692040.532
40
0.800000
1
739169
0
POINT
8
Pikat
10
7500901.310
20
4692040.532
0
TEXT
8
Nr e Pikave Gjeodezike te Parceles Baze
10
7500911.270
20
4692034.282
40
0.800000
1
739170
0
POINT
8
Pikat
10
7500911.270
20
4692034.282
0
TEXT
8
Nr e Pikave Gjeodezike te Parceles Baze
10
7500922.910
20
4692026.002
40
0.800000
1
739171
0
POINT
8
Pikat
10
7500922.910
20
4692026.002
0
TEXT
8
Nr e Pikave Gjeodezike te Parceles Baze
10
7500941.659
20
4692006.652
40
0.800000
1
739172
0
POINT
8
Pikat
10
7500941.659
20
4692006.652
0
TEXT
8
Nr e Pikave Gjeodezike te Parceles Baze
10
7500979.338
20
4691967.422
40
0.800000
1
739173
0
POINT
8
Pikat
10
7500979.338
20
4691967.422
0
TEXT
8
Nr e Pikave Gjeodezike te Parceles Baze
10
7500996.308
20
4691951.202
40
0.800000
1
739174
0
POINT
8
Pikat
10
7500996.308
20
4691951.202
0
TEXT
8
Nr e Pikave Gjeodezike te Parceles Baze
10
7501011.737
20
4691939.382
40
0.800000
1
739175
0
POINT
8
Pikat
10
7501011.737
20
4691939.382
0
TEXT
8
Nr e Pikave Gjeodezike te Parceles Baze
10
7501031.647
20
4691929.752
40
0.800000
1
739176
0
POINT
8
Pikat
10
7501031.647
20
4691929.752
0
TEXT
8
Nr e Pikave Gjeodezike te Parceles Baze
10
7501038.547
20
4691924.172
40
0.800000
1
739177
0
POINT
8
Pikat
10
7501038.547
20
4691924.172
0
TEXT
8
Nr e Pikave Gjeodezike te Parceles Baze
10
7501080.647
20
4691914.012
40
0.800000
1
739178
0
POINT
8
Pikat
10
7501080.647
20
4691914.012
0
TEXT
8
Nr e Pikave Gjeodezike te Parceles Baze
10
7501090.796
20
4691898.552
40
0.800000
1
739179
0
POINT
8
Pikat
10
7501090.796
20
4691898.552
0
TEXT
8
Nr e Pikave Gjeodezike te Parceles Baze
10
7501100.116
20
4691884.902
40
0.800000
1
739180
0
POINT
8
Pikat
10
7501100.116
20
4691884.902
0
TEXT
8
Nr e Pikave Gjeodezike te Parceles Baze
10
7501111.446
20
4691880.872
40
0.800000
1
739181
0
POINT
8
Pikat
10
7501111.446
20
4691880.872
0
TEXT
8
Nr e Pikave Gjeodezike te Parceles Baze
10
7501142.626
20
4691868.882
40
0.800000
1
739182
0
POINT
8
Pikat
10
7501142.626
20
4691868.882
0
TEXT
8
Nr e Pikave Gjeodezike te Parceles Baze
10
7501175.506
20
4691871.261
40
0.800000
1
739183
0
POINT
8
Pikat
10
7501175.506
20
4691871.261
0
TEXT
8
Nr e Pikave Gjeodezike te Parceles Baze
10
7501188.486
20
4691880.261
40
0.800000
1
739184
0
POINT
8
Pikat
10
7501188.486
20
4691880.261
0
TEXT
8
Nr e Pikave Gjeodezike te Parceles Baze
10
7501201.246
20
4691867.911
40
0.800000
1
739185
0
POINT
8
Pikat
10
7501201.246
20
4691867.911
0
TEXT
8
Nr e Pikave Gjeodezike te Parceles Baze
10
7501204.865
20
4691864.331
40
0.800000
1
739186
0
POINT
8
Pikat
10
7501204.865
20
4691864.331
0
TEXT
8
Nr e Pikave Gjeodezike te Parceles Baze
10
7501209.005
20
4691861.191
40
0.800000
1
739187
0
POINT
8
Pikat
10
7501209.005
20
4691861.191
0
TEXT
8
Nr e Pikave Gjeodezike te Parceles Baze
10
7501217.894
20
4691820.531
40
0.800000
1
739188
0
POINT
8
Pikat
10
7501217.894
20
4691820.531
0
TEXT
8
Nr e Pikave Gjeodezike te Parceles Baze
10
7501237.003
20
4691780.511
40
0.800000
1
739189
0
POINT
8
Pikat
10
7501237.003
20
4691780.511
0
TEXT
8
Nr e Pikave Gjeodezike te Parceles Baze
10
7501237.643
20
4691766.712
40
0.800000
1
739190
0
POINT
8
Pikat
10
7501237.643
20
4691766.712
0
TEXT
8
Nr e Pikave Gjeodezike te Parceles Baze
10
7501242.363
20
4691754.422
40
0.800000
1
739191
0
POINT
8
Pikat
10
7501242.363
20
4691754.422
0
TEXT
8
Nr e Pikave Gjeodezike te Parceles Baze
10
7501256.022
20
4691739.822
40
0.800000
1
739192
0
POINT
8
Pikat
10
7501256.022
20
4691739.822
0
TEXT
8
Nr e Pikave Gjeodezike te Parceles Baze
10
7501265.472
20
4691728.362
40
0.800000
1
739193
0
POINT
8
Pikat
10
7501265.472
20
4691728.362
0
TEXT
8
Nr e Pikave Gjeodezike te Parceles Baze
10
7501275.032
20
4691720.682
40
0.800000
1
739194
0
POINT
8
Pikat
10
7501275.032
20
4691720.682
0
TEXT
8
Nr e Pikave Gjeodezike te Parceles Baze
10
7501289.332
20
4691712.052
40
0.800000
1
739195
0
POINT
8
Pikat
10
7501289.332
20
4691712.052
0
TEXT
8
Nr e Pikave Gjeodezike te Parceles Baze
10
7501309.402
20
4691706.262
40
0.800000
1
739196
0
POINT
8
Pikat
10
7501309.402
20
4691706.262
0
TEXT
8
Nr e Pikave Gjeodezike te Parceles Baze
10
7501330.672
20
4691696.832
40
0.800000
1
739197
0
POINT
8
Pikat
10
7501330.672
20
4691696.832
0
TEXT
8
Nr e Pikave Gjeodezike te Parceles Baze
10
7501348.501
20
4691690.182
40
0.800000
1
739198
0
POINT
8
Pikat
10
7501348.501
20
4691690.182
0
TEXT
8
Nr e Pikave Gjeodezike te Parceles Baze
10
7501359.651
20
4691678.373
40
0.800000
1
739199
0
POINT
8
Pikat
10
7501359.651
20
4691678.373
0
TEXT
8
Nr e Pikave Gjeodezike te Parceles Baze
10
7501374.651
20
4691658.044
40
0.800000
1
739200
0
POINT
8
Pikat
10
7501374.651
20
4691658.044
0
TEXT
8
Nr e Pikave Gjeodezike te Parceles Baze
10
7501388.781
20
4691640.864
40
0.800000
1
739201
0
POINT
8
Pikat
10
7501388.781
20
4691640.864
0
TEXT
8
Nr e Pikave Gjeodezike te Parceles Baze
10
7501402.151
20
4691630.764
40
0.800000
1
739202
0
POINT
8
Pikat
10
7501402.151
20
4691630.764
0
TEXT
8
Nr e Pikave Gjeodezike te Parceles Baze
10
7501419.991
20
4691619.975
40
0.800000
1
739203
0
POINT
8
Pikat
10
7501419.991
20
4691619.975
0
TEXT
8
Nr e Pikave Gjeodezike te Parceles Baze
10
7501427.501
20
4691606.485
40
0.800000
1
739204
0
POINT
8
Pikat
10
7501427.501
20
4691606.485
0
TEXT
8
Nr e Pikave Gjeodezike te Parceles Baze
10
7501435.181
20
4691596.675
40
0.800000
1
739205
0
POINT
8
Pikat
10
7501435.181
20
4691596.675
0
TEXT
8
Nr e Pikave Gjeodezike te Parceles Baze
10
7501449.591
20
4691583.136
40
0.800000
1
739206
0
POINT
8
Pikat
10
7501449.591
20
4691583.136
0
TEXT
8
Nr e Pikave Gjeodezike te Parceles Baze
10
7501455.020
20
4691576.466
40
0.800000
1
739207
0
POINT
8
Pikat
10
7501455.020
20
4691576.466
0
TEXT
8
Nr e Pikave Gjeodezike te Parceles Baze
10
7501459.280
20
4691564.057
40
0.800000
1
739208
0
POINT
8
Pikat
10
7501459.280
20
4691564.057
0
TEXT
8
Nr e Pikave Gjeodezike te Parceles Baze
10
7501467.310
20
4691554.717
40
0.800000
1
739209
0
POINT
8
Pikat
10
7501467.310
20
4691554.717
0
TEXT
8
Nr e Pikave Gjeodezike te Parceles Baze
10
7501476.250
20
4691554.577
40
0.800000
1
739210
0
POINT
8
Pikat
10
7501476.250
20
4691554.577
0
TEXT
8
Nr e Pikave Gjeodezike te Parceles Baze
10
7501493.891
20
4691582.755
40
0.800000
1
739211
0
POINT
8
Pikat
10
7501493.891
20
4691582.755
0
TEXT
8
Nr e Pikave Gjeodezike te Parceles Baze
10
7501513.851
20
4691592.605
40
0.800000
1
739212
0
POINT
8
Pikat
10
7501513.851
20
4691592.605
0
TEXT
8
Nr e Pikave Gjeodezike te Parceles Baze
10
7501538.231
20
4691596.134
40
0.800000
1
739213
0
POINT
8
Pikat
10
7501538.231
20
4691596.134
0
TEXT
8
Nr e Pikave Gjeodezike te Parceles Baze
10
7501550.411
20
4691595.394
40
0.800000
1
739214
0
POINT
8
Pikat
10
7501550.411
20
4691595.394
0
TEXT
8
Nr e Pikave Gjeodezike te Parceles Baze
10
7501562.491
20
4691600.534
40
0.800000
1
739215
0
POINT
8
Pikat
10
7501562.491
20
4691600.534
0
TEXT
8
Nr e Pikave Gjeodezike te Parceles Baze
10
7501571.781
20
4691600.114
40
0.800000
1
739216
0
POINT
8
Pikat
10
7501571.781
20
4691600.114
0
TEXT
8
Nr e Pikave Gjeodezike te Parceles Baze
10
7501583.961
20
4691616.453
40
0.800000
1
739217
0
POINT
8
Pikat
10
7501583.961
20
4691616.453
0
TEXT
8
Nr e Pikave Gjeodezike te Parceles Baze
10
7501602.071
20
4691634.432
40
0.800000
1
739218
0
POINT
8
Pikat
10
7501602.071
20
4691634.432
0
TEXT
8
Nr e Pikave Gjeodezike te Parceles Baze
10
7501630.311
20
4691660.031
40
0.800000
1
739219
0
POINT
8
Pikat
10
7501630.311
20
4691660.031
0
TEXT
8
Nr e Pikave Gjeodezike te Parceles Baze
10
7501644.281
20
4691677.390
40
0.800000
1
739220
0
POINT
8
Pikat
10
7501644.281
20
4691677.390
0
TEXT
8
Nr e Pikave Gjeodezike te Parceles Baze
10
7501662.981
20
4691703.969
40
0.800000
1
739221
0
POINT
8
Pikat
10
7501662.981
20
4691703.969
0
TEXT
8
Nr e Pikave Gjeodezike te Parceles Baze
10
7501675.672
20
4691724.348
40
0.800000
1
739222
0
POINT
8
Pikat
10
7501675.672
20
4691724.348
0
TEXT
8
Nr e Pikave Gjeodezike te Parceles Baze
10
7501691.632
20
4691735.028
40
0.800000
1
739223
0
POINT
8
Pikat
10
7501691.632
20
4691735.028
0
TEXT
8
Nr e Pikave Gjeodezike te Parceles Baze
10
7501708.772
20
4691746.457
40
0.800000
1
739224
0
POINT
8
Pikat
10
7501708.772
20
4691746.457
0
TEXT
8
Nr e Pikave Gjeodezike te Parceles Baze
10
7501746.832
20
4691753.357
40
0.800000
1
739225
0
POINT
8
Pikat
10
7501746.832
20
4691753.357
0
TEXT
8
Nr e Pikave Gjeodezike te Parceles Baze
10
7501772.273
20
4691758.487
40
0.800000
1
739226
0
POINT
8
Pikat
10
7501772.273
20
4691758.487
0
TEXT
8
Nr e Pikave Gjeodezike te Parceles Baze
10
7501788.333
20
4691783.516
40
0.800000
1
739227
0
POINT
8
Pikat
10
7501788.333
20
4691783.516
0
TEXT
8
Nr e Pikave Gjeodezike te Parceles Baze
10
7501825.124
20
4691806.286
40
0.800000
1
739228
0
POINT
8
Pikat
10
7501825.124
20
4691806.286
0
TEXT
8
Nr e Pikave Gjeodezike te Parceles Baze
10
7501837.074
20
4691813.206
40
0.800000
1
739229
0
POINT
8
Pikat
10
7501837.074
20
4691813.206
0
TEXT
8
Nr e Pikave Gjeodezike te Parceles Baze
10
7501863.284
20
4691832.595
40
0.800000
1
739230
0
POINT
8
Pikat
10
7501863.284
20
4691832.595
0
TEXT
8
Nr e Pikave Gjeodezike te Parceles Baze
10
7501880.055
20
4691838.355
40
0.800000
1
739231
0
POINT
8
Pikat
10
7501880.055
20
4691838.355
0
TEXT
8
Nr e Pikave Gjeodezike te Parceles Baze
10
7501896.085
20
4691846.595
40
0.800000
1
739232
0
POINT
8
Pikat
10
7501896.085
20
4691846.595
0
TEXT
8
Nr e Pikave Gjeodezike te Parceles Baze
10
7501917.865
20
4691848.265
40
0.800000
1
739233
0
POINT
8
Pikat
10
7501917.865
20
4691848.265
0
TEXT
8
Nr e Pikave Gjeodezike te Parceles Baze
10
7501929.125
20
4691853.174
40
0.800000
1
739234
0
POINT
8
Pikat
10
7501929.125
20
4691853.174
0
TEXT
8
Nr e Pikave Gjeodezike te Parceles Baze
10
7501937.745
20
4691859.874
40
0.800000
1
739235
0
POINT
8
Pikat
10
7501937.745
20
4691859.874
0
TEXT
8
Nr e Pikave Gjeodezike te Parceles Baze
10
7501914.792
20
4691841.328
40
0.800000
1
758605
0
POINT
8
Pikat
10
7501914.792
20
4691841.328
0
TEXT
8
Nr e Pikave Gjeodezike te Parceles Baze
10
7501886.278
20
4691834.854
40
0.800000
1
758608
0
POINT
8
Pikat
10
7501886.278
20
4691834.854
0
TEXT
8
Nr e Pikave Gjeodezike te Parceles Baze
10
7501803.717
20
4691784.851
40
0.800000
1
758613
0
POINT
8
Pikat
10
7501803.717
20
4691784.851
0
TEXT
8
Nr e Pikave Gjeodezike te Parceles Baze
10
7501774.668
20
4691753.865
40
0.800000
1
758620
0
POINT
8
Pikat
10
7501774.668
20
4691753.865
0
ENDSEC
0
EOF
