0
SECTION
2
HEADER
9
$ACADVER
1
AC1009
9
$INSBASE
10
0.000
20
0.000
30
0.000
9
$EXTMIN
10
7513938.660
20
4691208.600
9
$EXTMAX
10
7513938.660
20
4691208.600
0
ENDSEC
0
SECTION
2
TABLES
0
TABLE
2
LTYPE
70
1
0
LTYPE
2
continuous
70
64
3
Solid line
72
65
73
0
40
0.000
0
ENDTAB
0
TABLE
2
LAYER
70
1
0
LAYER
2
Parcela
70
64
62
7
6
continuous
0
ENDTAB
0
TABLE
2
STYLE
70
1
0
STYLE
2
ANNOTATIVE
70
0
40
0
41
40
50
50
71
0
42
1
3
ARIAL.TTF
4

0
ENDTAB
0
TABLE
2
VIEW
70
0
0
ENDTAB
0
ENDSEC
0
SECTION
2
BLOCKS
0
ENDSEC
0
SECTION
2
ENTITIES
0
POLYLINE
66
1
8
Parcela Baze
70
0
10
7501801.577
20
4691722.683
0
VERTEX
8
Parcela Baze
10
7501801.577
20
4691722.683
0
VERTEX
8
Parcela Baze
10
7501811.082
20
4691746.183
0
VERTEX
8
Parcela Baze
10
7501820.793
20
4691760.185
0
VERTEX
8
Parcela Baze
10
7501856.116
20
4691786.463
0
VERTEX
8
Parcela Baze
10
7501864.735
20
4691803.367
0
VERTEX
8
Parcela Baze
10
7501886.278
20
4691834.854
0
VERTEX
8
Parcela Baze
10
7501898.745
20
4691838.255
0
VERTEX
8
Parcela Baze
10
7501914.792
20
4691841.328
0
VERTEX
8
Parcela Baze
10
7501904.566
20
4691833.961
0
VERTEX
8
Parcela Baze
10
7501889.046
20
4691830.034
0
VERTEX
8
Parcela Baze
10
7501868.935
20
4691800.651
0
VERTEX
8
Parcela Baze
10
7501860.040
20
4691783.150
0
VERTEX
8
Parcela Baze
10
7501824.435
20
4691756.662
0
VERTEX
8
Parcela Baze
10
7501815.015
20
4691743.093
0
VERTEX
8
Parcela Baze
10
7501806.304
20
4691721.041
0
VERTEX
8
Parcela Baze
10
7501801.577
20
4691722.683
0
SEQEND
0
TEXT
8
Nr Parceles Baze
10
7501852.886
20
4691786.176
40
0.800000
1
3583-5
0
TEXT
8
Nr e Pikave Gjeodezike te Parceles Baze
10
7501898.745
20
4691838.255
40
0.800000
1
739097
0
POINT
8
Pikat
10
7501898.745
20
4691838.255
0
TEXT
8
Nr e Pikave Gjeodezike te Parceles Baze
10
7501914.792
20
4691841.328
40
0.800000
1
758605
0
POINT
8
Pikat
10
7501914.792
20
4691841.328
0
TEXT
8
Nr e Pikave Gjeodezike te Parceles Baze
10
7501904.566
20
4691833.961
40
0.800000
1
758606
0
POINT
8
Pikat
10
7501904.566
20
4691833.961
0
TEXT
8
Nr e Pikave Gjeodezike te Parceles Baze
10
7501889.046
20
4691830.034
40
0.800000
1
758607
0
POINT
8
Pikat
10
7501889.046
20
4691830.034
0
TEXT
8
Nr e Pikave Gjeodezike te Parceles Baze
10
7501886.278
20
4691834.854
40
0.800000
1
758608
0
POINT
8
Pikat
10
7501886.278
20
4691834.854
0
TEXT
8
Nr e Pikave Gjeodezike te Parceles Baze
10
7501864.735
20
4691803.367
40
0.800000
1
758609
0
POINT
8
Pikat
10
7501864.735
20
4691803.367
0
TEXT
8
Nr e Pikave Gjeodezike te Parceles Baze
10
7501868.935
20
4691800.651
40
0.800000
1
758610
0
POINT
8
Pikat
10
7501868.935
20
4691800.651
0
TEXT
8
Nr e Pikave Gjeodezike te Parceles Baze
10
7501860.040
20
4691783.150
40
0.800000
1
758611
0
POINT
8
Pikat
10
7501860.040
20
4691783.150
0
TEXT
8
Nr e Pikave Gjeodezike te Parceles Baze
10
7501856.116
20
4691786.463
40
0.800000
1
758612
0
POINT
8
Pikat
10
7501856.116
20
4691786.463
0
TEXT
8
Nr e Pikave Gjeodezike te Parceles Baze
10
7501820.793
20
4691760.185
40
0.800000
1
758614
0
POINT
8
Pikat
10
7501820.793
20
4691760.185
0
TEXT
8
Nr e Pikave Gjeodezike te Parceles Baze
10
7501824.435
20
4691756.662
40
0.800000
1
758615
0
POINT
8
Pikat
10
7501824.435
20
4691756.662
0
TEXT
8
Nr e Pikave Gjeodezike te Parceles Baze
10
7501815.015
20
4691743.093
40
0.800000
1
758616
0
POINT
8
Pikat
10
7501815.015
20
4691743.093
0
TEXT
8
Nr e Pikave Gjeodezike te Parceles Baze
10
7501811.082
20
4691746.183
40
0.800000
1
758617
0
POINT
8
Pikat
10
7501811.082
20
4691746.183
0
TEXT
8
Nr e Pikave Gjeodezike te Parceles Baze
10
7501801.577
20
4691722.683
40
0.800000
1
758618
0
POINT
8
Pikat
10
7501801.577
20
4691722.683
0
TEXT
8
Nr e Pikave Gjeodezike te Parceles Baze
10
7501806.304
20
4691721.041
40
0.800000
1
758619
0
POINT
8
Pikat
10
7501806.304
20
4691721.041
0
ENDSEC
0
EOF
